<svg
    width="19"
    height="18"
    viewBox="0 0 19 18"
    fill="none"
    xmlns="http://www.w3.org/2000/svg"
>
    <path
        d="M1.43281 7.37555H9.11006C10.0389 7.38225 10.9375 7.04569 11.6334 6.43043C12.3293 5.81518 12.7736 4.96458 12.8808 4.04196C12.9842 3.00574 12.6408 1.9745 11.9366 1.20722C11.2375 0.439664 10.2479 0.00145865 9.20973 -0.000289917H7.13812C6.8049 -0.000289917 6.49701 0.177567 6.33038 0.466064C6.16377 0.754681 6.16377 1.11026 6.33038 1.39887C6.49699 1.68736 6.8049 1.86523 7.13812 1.86523H9.20973C9.73471 1.8659 10.234 2.09291 10.58 2.48786C10.9258 2.88283 11.0849 3.40767 11.0163 3.92827C10.9476 4.37491 10.7191 4.7814 10.3732 5.07214C10.0274 5.36303 9.58769 5.51826 9.13594 5.50928H1.43264C1.09942 5.50928 0.791531 5.687 0.624903 5.97564C0.458274 6.26427 0.458295 6.61969 0.624903 6.90831C0.79151 7.19693 1.09942 7.37466 1.43264 7.37466L1.43281 7.37555Z"
        fill="white"
    />
    <path
        d="M18.4834 13.5292C18.3762 12.6065 17.9321 11.7561 17.2363 11.141C16.5404 10.5257 15.642 10.189 14.7132 10.1956H8.30006C7.96685 10.1956 7.65896 10.3733 7.49233 10.6619C7.32572 10.9505 7.32572 11.3061 7.49233 11.5946C7.65893 11.8832 7.96684 12.0609 8.30006 12.0609H14.7386C15.1903 12.052 15.63 12.2073 15.9758 12.4981C16.3218 12.789 16.5502 13.1955 16.6189 13.642C16.6875 14.1625 16.5285 14.6874 16.1826 15.0824C15.8366 15.4774 15.3374 15.7043 14.8124 15.7051H12.74C12.4067 15.7051 12.0989 15.8828 11.9322 16.1715C11.7656 16.46 11.7656 16.8155 11.9322 17.1042C12.0988 17.3928 12.4067 17.5705 12.74 17.5705H14.8114C15.8501 17.5696 16.8405 17.1316 17.54 16.364C18.2439 15.5965 18.587 14.5653 18.4832 13.5292L18.4834 13.5292Z"
        fill="white"
    />
    <path
        d="M6.24479 11.1292C6.24466 10.8816 6.14635 10.6445 5.97157 10.4694C5.79666 10.2944 5.55946 10.1958 5.31212 10.1955H1.43269C1.09948 10.1955 0.791585 10.3733 0.624956 10.6619C0.458348 10.9505 0.458348 11.3061 0.624956 11.5946C0.791564 11.8832 1.09947 12.0609 1.43269 12.0609H5.31212C5.55922 12.0607 5.79613 11.9624 5.97092 11.7877C6.14571 11.6131 6.24427 11.3763 6.24481 11.1292L6.24479 11.1292Z"
        fill="white"
    />
    <path
        d="M13.2052 7.97796C13.2848 7.97796 13.3611 7.94636 13.4173 7.89011L14.0495 7.25795H14.0494C14.9182 7.43018 15.8143 7.14116 16.4188 6.49389C17.0234 5.84661 17.2505 4.93296 17.0194 4.07794C16.9918 3.97401 16.9106 3.89285 16.8067 3.86526C15.9517 3.63423 15.038 3.86138 14.3907 4.46581C13.7435 5.07037 13.4544 5.9665 13.6267 6.83527L12.9931 7.46554C12.9074 7.55139 12.8817 7.68036 12.9281 7.79246C12.9746 7.90456 13.0839 7.97755 13.2052 7.97769L13.2052 7.97796Z"
        fill="white"
    />
    <path
        d="M6.73133 13.3241L6.09917 12.692C5.98145 12.5783 5.79435 12.58 5.67862 12.6957C5.56289 12.8114 5.56129 12.9985 5.675 13.1163L6.30676 13.7484V13.7483C6.14403 14.5849 6.40573 15.4477 7.00574 16.053C7.62972 16.6704 9.02447 17.1947 9.69973 16.503H9.69987C9.93063 15.6482 9.70362 14.735 9.09959 14.0878C8.49543 13.4405 7.59985 13.1514 6.73132 13.3229L6.73133 13.3241Z"
        fill="white"
    />
</svg>